Coordinates
version=1
nRows=29
nColumns=24
inDegrees=yes

Units are S.I. units (second, meters, Newtons, ...)
Angles are in degrees.

endheader
time	pelvis_tilt	pelvis_list	pelvis_rotation	pelvis_tx	pelvis_ty	pelvis_tz	hip_flexion_r	hip_adduction_r	hip_rotation_r	knee_angle_r	ankle_angle_r	subtalar_angle_r	mtp_angle_r	hip_flexion_l	hip_adduction_l	hip_rotation_l	knee_angle_l	ankle_angle_l	subtalar_angle_l	mtp_angle_l	lumbar_extension	lumbar_bending	lumbar_rotation
      1.00800000	     -2.79318295	     -0.21101160	      1.56468069	     -0.06906283	      1.04675843	      0.33162527	    -12.48559540	      3.45576155	     -5.77046611	     -7.99716946	     19.28253510	      5.31191178	      1.26658003	     26.82404397	      1.06560792	      0.18211104	     -2.68712495	      7.38582355	      7.27282806	      0.21486066	    -15.90593666	      3.77602089	      2.92857821
      1.01216667	     -2.74035347	     -0.18733308	      1.48502885	     -0.06305000	      1.04593582	      0.33162074	    -12.67656170	      3.38941571	     -5.69905338	     -8.46127264	     19.33982602	      5.32128059	      1.28381690	     26.89116968	      1.15200846	      0.24914222	     -3.21641217	      7.31778729	      7.15514477	      0.21725543	    -15.94217328	      3.63699711	      2.90895491
      1.01633333	     -2.67792431	     -0.13057694	      1.39784535	     -0.05696941	      1.04513804	      0.33159513	    -12.81750253	      3.25890162	     -5.88049253	     -9.07219031	     19.58416041	      5.79663781	      1.40867188	     26.92123029	      1.27021907	      0.36372631	     -3.75476269	      7.16861525	      6.90860498	      0.24764808	    -15.95583616	      3.43904624	      2.90052530
      1.02050000	     -2.60026066	     -0.07019163	      1.31098305	     -0.05086389	      1.04443269	      0.33160503	    -12.99258722	      3.13528053	     -5.93450410	     -9.63863815	     19.69768635	      6.03772478	      1.55320842	     26.93904996	      1.38666826	      0.46943139	     -4.35791187	      6.98667842	      6.67700197	      0.28892766	    -15.99883644	      3.23940303	      2.87065034
      1.02466667	     -2.54164115	     -0.00763827	      1.21638677	     -0.04472432	      1.04372651	      0.33163386	    -13.13240753	      3.00485956	     -5.95873945	    -10.24116750	     19.78948257	      6.23980882	      1.69647740	     26.97501788	      1.49986956	      0.58915639	     -5.00477785	      6.78084065	      6.43751601	      0.33065456	    -16.02286450	      3.02025671	      2.83820731
      1.02883333	     -2.48396099	      0.03399777	      1.14146740	     -0.03856010	      1.04306339	      0.33163527	    -13.28820169	      2.90876132	     -5.90827906	    -10.79746431	     19.71275962	      6.25240241	      1.72800922	     27.04099138	      1.59474609	      0.66419385	     -5.75015480	      6.55531489	      6.28980748	      0.33709468	    -16.04846628	      2.86023205	      2.81629769
      1.03300000	     -2.46048651	      0.12151598	      1.03636785	     -0.03231749	      1.04238216	      0.33165331	    -13.33281125	      2.72501272	     -6.06421743	    -11.53332867	     19.84869732	      6.70157726	      1.93294843	     27.09005640	      1.72935452	      0.84059319	     -6.43014348	      6.20059136	      5.88480697	      0.39125912	    -15.99421875	      2.59193918	      2.77755717
      1.03716667	     -2.40321715	      0.19035775	      0.95736393	     -0.02608915	      1.04180075	      0.33162184	    -13.42140603	      2.57015974	     -6.18375298	    -12.24013669	     19.82631708	      7.00250644	      2.20479062	     27.12275901	      1.85378604	      1.02981619	     -7.17620125	      5.84036012	      5.50196412	      0.46150098	    -15.99686519	      2.38111230	      2.73095310
      1.04133333	     -2.34011979	      0.25132841	      0.89088669	     -0.01985359	      1.04126744	      0.33154803	    -13.49786621	      2.41968437	     -6.32029204	    -12.98300617	     19.75001805	      7.30115837	      2.79265498	     27.15052907	      1.97633907	      1.26326334	     -7.94855334	      5.46807717	      5.08007713	      0.60712293	    -16.01325339	      2.18908323	      2.68571275
      1.04550000	     -2.32059336	      0.34131751	      0.77620742	     -0.01351225	      1.04075415	      0.33162258	    -13.53210165	      2.23974652	     -6.28837401	    -13.71425072	     19.63079629	      7.42990670	      3.03872598	     27.22813227	      2.08892842	      1.30730437	     -8.76352731	      5.05473456	      4.83236609	      0.65371006	    -15.94603947	      1.90773191	      2.63375508
      1.04966667	     -2.27149101	      0.41699040	      0.69472685	     -0.00721235	      1.04030327	      0.33155741	    -13.54998891	      2.05554576	     -6.43441985	    -14.54607135	     19.49724756	      7.77861248	      3.39444959	     27.27441337	      2.21155062	      1.47885084	     -9.58997177	      4.64707837	      4.43407224	      0.71089421	    -15.93032677	      1.68587162	      2.58999615
      1.05383333	     -2.22096975	      0.47757027	      0.62381901	     -0.00089782	      1.03992440	      0.33148490	    -13.57443746	      1.89864861	     -6.48291309	    -15.34383898	     19.16452399	      7.84049856	      8.10585893	     27.31817610	      2.32143798	      1.68725443	    -10.42918156	      4.21776970	      3.98600674	      1.39910599	    -15.91542363	      1.48125236	      2.51559187
      1.05800000	     -2.16695166	      0.56765202	      0.53220360	      0.00545057	      1.03958855	      0.33143079	    -13.55315395	      1.68452553	     -6.61965845	    -16.26193270	     18.97201912	      8.17294082	      8.18478734	     27.37459207	      2.43839946	      1.73828571	    -11.32296312	      3.86088933	      3.73891567	      1.39074354	    -15.90108404	      1.22925282	      2.48206918
      1.06216667	     -2.12819164	      0.65165695	      0.44172083	      0.01181087	      1.03929444	      0.33134838	    -13.49088222	      1.47109214	     -6.74038087	    -17.22053409	     18.70923514	      8.47141818	      8.33287864	     27.43201746	      2.55321390	      1.85290806	    -12.19647441	      3.48628995	      3.39516837	      1.37330110	    -15.86785754	      0.98696417	      2.42458179
      1.06633333	     -2.07764633	      0.73858671	      0.35163261	      0.01817468	      1.03907345	      0.33124693	    -13.41250185	      1.24415764	     -6.87600228	    -18.23157504	     18.39819433	      8.78677732	      8.55755505	     27.47463601	      2.66814033	      1.95486884	    -13.07607659	      3.13889896	      3.06354125	      1.34501445	    -15.84711379	      0.74237684	      2.36327754
      1.07050000	     -2.02820717	      0.81504913	      0.26012551	      0.02454101	      1.03892482	      0.33113291	    -13.31431281	      1.02551724	     -6.97308618	    -19.25574051	     17.91468240	      8.98389032	     11.85863935	     27.50663271	      2.77425985	      2.09223213	    -13.94118254	      2.80354223	      2.66737788	      0.95025098	    -15.82098548	      0.51816006	      2.28182632
      1.07466667	     -1.96583226	      0.91183328	      0.16005851	      0.03092303	      1.03882798	      0.33101771	    -13.18304475	      0.76430435	     -7.13030078	    -20.38377747	     17.52069628	      9.33122212	     11.93594223	     27.53590921	      2.88134529	      2.08763638	    -14.84083519	      2.57429711	      2.50212116	      0.93208076	    -15.81346354	      0.25535831	      2.24629358
      1.07883333	     -1.91531234	      1.00394160	      0.06267669	      0.03730160	      1.03877453	      0.33086965	    -13.00820242	      0.49938487	     -7.28175537	    -21.56121853	     17.06384963	      9.66458474	     12.08188844	     27.56132399	      2.98941921	      2.12829494	    -15.71276263	      2.35432625	      2.25903860	      0.89915558	    -15.78830892	      0.00683330	      2.19051405
      1.08300000	     -1.85379402	      1.09780159	     -0.03378853	      0.04366952	      1.03878802	      0.33069808	    -12.81200389	      0.22166796	     -7.44050555	    -22.79286183	     16.55585761	     10.00314358	     12.30029746	     27.56401602	      3.09865973	      2.16088205	    -16.56785999	      2.17883143	      2.03545101	      0.85162071	    -15.77711762	     -0.23810057	      2.13308622
      1.08716667	     -1.80820965	      1.19606213	     -0.13665294	      0.05004548	      1.03883551	      0.33052231	    -12.56313870	     -0.07299100	     -7.59605325	    -24.08122596	     15.99324091	     10.33934682	     12.57791403	     27.56696771	      3.20743276	      2.17242799	    -17.39602276	      2.04795425	      1.84196453	      0.79082212	    -15.74454234	     -0.48863645	      2.07773207
      1.09133333	     -1.74305037	      1.29870326	     -0.23533662	      0.05639160	      1.03895523	      0.33032278	    -12.30124379	     -0.38267925	     -7.75903573	    -25.42418367	     15.38797772	     10.67291338	     12.93549424	     27.53531793	      3.32151799	      2.17210704	    -18.19825744	      1.96609814	      1.67181351	      0.71131750	    -15.73351021	     -0.73858669	      2.02124402
      1.09550000	     -1.63885744	      1.41526960	     -0.33749320	      0.06270995	      1.03921450	      0.33013102	    -12.05840286	     -0.71059582	     -7.88896491	    -26.77593766	     14.60062744	     10.87200316	     17.71352190	     27.42490476	      3.45703329	      2.22129942	    -18.93316998	      1.91868464	      1.39793055	     -0.37928209	    -15.78600139	     -1.02935420	      1.92796661
      1.09966667	     -1.60272535	      1.49845117	     -0.43484704	      0.06902199	      1.03937358	      0.32991605	    -11.69994366	     -1.01151459	     -8.01743902	    -28.20958690	     13.87828396	     11.15798504	     17.77047953	     27.40558289	      3.54157749	      2.15176975	    -19.70494647	      1.97564894	      1.40035653	     -0.39798072	    -15.74518086	     -1.25245255	      1.89576476
      1.10383333	     -1.53751748	      1.60680634	     -0.53565856	      0.07529878	      1.03963084	      0.32969466	    -11.33715352	     -1.35116345	     -8.14888048	    -29.69608387	     13.13240486	     11.44062249	     17.87230516	     27.31709169	      3.65713425	      2.10704836	    -20.40039352	      2.03891379	      1.31647832	     -0.43098219	    -15.74025474	     -1.50924274	      1.83945970
      1.10800000	     -1.47134326	      1.72126763	     -0.63670439	      0.08153773	      1.03992818	      0.32946921	    -10.94132916	     -1.70383283	     -8.27013028	    -31.22818249	     12.33673096	     11.68940620	     17.99706551	     27.20215904	      3.78039658	      2.06376161	    -21.04323523	      2.13617445	      1.23215860	     -0.47172067	    -15.73745936	     -1.76836174	      1.77785689
      1.11216667	     -1.40587876	      1.84008595	     -0.73612090	      0.08773514	      1.04026280	      0.32924276	    -10.51314772	     -2.06642729	     -8.37916587	    -32.79891863	     11.51217963	     11.91918214	     18.15701486	     27.06696485	      3.90904750	      2.01220483	    -21.64380248	      2.27312675	      1.15354763	     -0.52575146	    -15.73895380	     -2.03645519	      1.71240275
      1.11633333	     -1.33792903	      1.96040283	     -0.83945090	      0.09387712	      1.04064921	      0.32901181	    -10.05823489	     -2.43291865	     -8.45409051	    -34.38848102	     10.57663243	     12.04047374	     20.97438595	     26.89883538	      4.04635924	      1.99847151	    -22.18630248	      2.46656751	      1.02851627	     -1.58727345	    -15.74949562	     -2.30824419	      1.66388477
      1.12050000	     -1.25633422	      2.08440356	     -0.94008233	      0.09997789	      1.04108765	      0.32880498	     -9.59120037	     -2.80056723	     -8.51068072	    -36.00998120	      9.66510326	     12.16122893	     20.97123544	     26.69734493	      4.17979245	      1.93454789	    -22.68506081	      2.68946941	      1.00466130	     -1.59093512	    -15.78062670	     -2.57613147	      1.57560046
      1.12466667	     -1.19271934	      2.20755407	     -1.04230089	      0.10602705	      1.04152028	      0.32859531	     -9.07319389	     -3.17118389	     -8.55294288	    -37.66326827	      8.75030300	     12.24788416	     20.96864384	     26.49725734	      4.31462554	      1.87283175	    -23.14780661	      2.93970731	      0.95451574	     -1.59819263	    -15.79020541	     -2.84075862	      1.49624120
